<svg xmlns="http://www.w3.org/2000/svg" viewBox="0 0 64 64" role="img" aria-label="hydecaside C15 diamond cut">
  <defs>
    <clipPath id="diamondClip">
      <path d="M32 1.2 L62.8 32 L32 62.8 L1.2 32 Z" />
    </clipPath>
    <radialGradient id="gem" cx="35%" cy="35%" r="75%">
      <stop offset="0" stop-color="#fef3c7" />
      <stop offset="0.55" stop-color="#fbbf24" />
      <stop offset="1" stop-color="#f97316" />
    </radialGradient>
  </defs>

  <g clip-path="url(#diamondClip)">
    <path d="M32 1.2 L32 32 L1.2 32 Z" fill="#35312d" />
    <path d="M32 1.2 L62.8 32 L32 32 Z" fill="#2a2623" />
    <path d="M1.2 32 L32 32 L32 62.8 Z" fill="#292522" />
    <path d="M32 32 L62.8 32 L32 62.8 Z" fill="#201d1b" />
  </g>

  <path d="M32 1.2 L62.8 32 L32 62.8 L1.2 32 Z" fill="none" stroke="#1a1716" stroke-width="1.5" />
  <path d="M32 2.9 L61.1 32 L32 61.1 L2.9 32 Z" fill="none" stroke="#fbbf24" stroke-opacity="0.16" stroke-width="0.8" />
  <line x1="32" y1="1.2" x2="32" y2="62.8" stroke="#fbbf24" stroke-opacity="0.15" stroke-width="0.75" />
  <line x1="1.2" y1="32" x2="62.8" y2="32" stroke="#fbbf24" stroke-opacity="0.15" stroke-width="0.75" />

  <text x="22.1" y="25.5" text-anchor="middle" font-family="Outfit, Arial, sans-serif" font-size="10.4" font-weight="650" fill="#fafaf9" fill-opacity="0.9">H</text>
  <text x="41.2" y="25.5" text-anchor="middle" font-family="Outfit, Arial, sans-serif" font-size="10.4" font-weight="650" fill="#fbbf24" fill-opacity="0.86">D</text>
  <text x="22.1" y="44.8" text-anchor="middle" font-family="Outfit, Arial, sans-serif" font-size="10.4" font-weight="650" fill="#fafaf9" fill-opacity="0.5">C</text>
  <text x="41.2" y="44.8" text-anchor="middle" font-family="Outfit, Arial, sans-serif" font-size="10.4" font-weight="650" fill="#fbbf24" fill-opacity="0.62">S</text>

  <circle cx="32" cy="32" r="3" fill="url(#gem)" />
  <circle cx="32" cy="32" r="3.7" fill="none" stroke="#fbbf24" stroke-opacity="0.3" stroke-width="0.9" />
</svg>
